{
    "asset" : {
        "generator" : "Khronos glTF Blender I/O v1.7.33",
        "version" : "2.0"
    },
    "scene" : 0,
    "scenes" : [
        {
            "name" : "Scene",
            "nodes" : [
                3,
                4,
                5,
                6,
                7,
                8,
                9
            ]
        }
    ],
    "nodes" : [
        {
            "camera" : 0,
            "name" : "Camera_Orientation",
            "rotation" : [
                -0.7071067690849304,
                0,
                0,
                0.7071067690849304
            ]
        },
        {
            "children" : [
                0
            ],
            "name" : "Camera",
            "rotation" : [
                0.4540053606033325,
                0,
                0,
                0.8909989595413208
            ],
            "translation" : [
                0,
                0.4361496567726135,
                12.337149620056152
            ]
        },
        {
            "name" : "CameraTarget",
            "translation" : [
                0,
                1.3300727605819702,
                0
            ]
        },
        {
            "children" : [
                1,
                2
            ],
            "name" : "CameraData"
        },
        {
            "mesh" : 0,
            "name" : "Plane"
        },
        {
            "mesh" : 1,
            "name" : "Cube",
            "scale" : [
                0.41416874527931213,
                0.41416874527931213,
                0.41416874527931213
            ],
            "translation" : [
                0.7231314778327942,
                0,
                2.4009923934936523
            ]
        },
        {
            "mesh" : 2,
            "name" : "Cube.001",
            "scale" : [
                0.31150826811790466,
                0.31150826811790466,
                0.31150826811790466
            ],
            "translation" : [
                -1.49745774269104,
                0,
                3.561793327331543
            ]
        },
        {
            "mesh" : 3,
            "name" : "face",
            "rotation" : [
                0.7071068286895752,
                0,
                0,
                0.7071068286895752
            ],
            "scale" : [
                1.8921295404434204,
                1.8921295404434204,
                1.8921295404434204
            ],
            "translation" : [
                -0.04810571298003197,
                1.51835036277771,
                0.21485699713230133
            ]
        },
        {
            "mesh" : 4,
            "name" : "Plane.002",
            "scale" : [
                1.512490153312683,
                1.512490153312683,
                1.2604695558547974
            ],
            "translation" : [
                -0.05448536574840546,
                1.5522799491882324,
                -0.02311960607767105
            ]
        },
        {
            "mesh" : 5,
            "name" : "Plane.001"
        }
    ],
    "cameras" : [
        {
            "name" : "Camera.001",
            "perspective" : {
                "aspectRatio" : 1.7777777777777777,
                "yfov" : 0.37476517389754227,
                "zfar" : 1000,
                "znear" : 0.10000000149011612
            },
            "type" : "perspective"
        }
    ],
    "materials" : [
        {
            "doubleSided" : true,
            "name" : "Floor",
            "pbrMetallicRoughness" : {
                "baseColorFactor" : [
                    0.800000011920929,
                    0.800000011920929,
                    0.800000011920929,
                    1
                ],
                "metallicFactor" : 0,
                "roughnessFactor" : 0.5
            }
        },
        {
            "doubleSided" : true,
            "name" : "Base",
            "pbrMetallicRoughness" : {
                "baseColorFactor" : [
                    0.800000011920929,
                    0.800000011920929,
                    0.800000011920929,
                    1
                ],
                "metallicFactor" : 0,
                "roughnessFactor" : 0.5
            }
        },
        {
            "doubleSided" : true,
            "name" : "Face",
            "pbrMetallicRoughness" : {
                "baseColorFactor" : [
                    0.800000011920929,
                    0.800000011920929,
                    0.800000011920929,
                    1
                ],
                "metallicFactor" : 0,
                "roughnessFactor" : 0.5
            }
        },
        {
            "doubleSided" : true,
            "name" : "Face_Wall",
            "pbrMetallicRoughness" : {
                "baseColorFactor" : [
                    0.800000011920929,
                    0.800000011920929,
                    0.800000011920929,
                    1
                ],
                "metallicFactor" : 0,
                "roughnessFactor" : 0.5
            }
        },
        {
            "doubleSided" : true,
            "name" : "Wall",
            "pbrMetallicRoughness" : {
                "baseColorFactor" : [
                    0.800000011920929,
                    0.800000011920929,
                    0.800000011920929,
                    1
                ],
                "metallicFactor" : 0,
                "roughnessFactor" : 0.5
            }
        }
    ],
    "meshes" : [
        {
            "name" : "Plane.001",
            "primitives" : [
                {
                    "attributes" : {
                        "POSITION" : 0,
                        "NORMAL" : 1,
                        "TEXCOORD_0" : 2
                    },
                    "indices" : 3,
                    "material" : 0
                }
            ]
        },
        {
            "name" : "Cube.001",
            "primitives" : [
                {
                    "attributes" : {
                        "POSITION" : 4,
                        "NORMAL" : 5,
                        "TEXCOORD_0" : 6
                    },
                    "indices" : 7,
                    "material" : 1
                }
            ]
        },
        {
            "name" : "Cube.004",
            "primitives" : [
                {
                    "attributes" : {
                        "POSITION" : 8,
                        "NORMAL" : 9,
                        "TEXCOORD_0" : 10
                    },
                    "indices" : 11,
                    "material" : 1
                }
            ]
        },
        {
            "name" : "face",
            "primitives" : [
                {
                    "attributes" : {
                        "POSITION" : 12,
                        "NORMAL" : 13,
                        "TEXCOORD_0" : 14
                    },
                    "indices" : 15,
                    "material" : 2
                }
            ]
        },
        {
            "name" : "Plane",
            "primitives" : [
                {
                    "attributes" : {
                        "POSITION" : 16,
                        "NORMAL" : 17,
                        "TEXCOORD_0" : 18,
                        "COLOR_0" : 19
                    },
                    "indices" : 20,
                    "material" : 3
                }
            ]
        },
        {
            "name" : "Plane.002",
            "primitives" : [
                {
                    "attributes" : {
                        "POSITION" : 21,
                        "NORMAL" : 22,
                        "TEXCOORD_0" : 23
                    },
                    "indices" : 24,
                    "material" : 4
                }
            ]
        }
    ],
    "accessors" : [
        {
            "bufferView" : 0,
            "componentType" : 5126,
            "count" : 12,
            "max" : [
                2.0004067420959473,
                0,
                9.665212631225586
            ],
            "min" : [
                -1.9083517789840698,
                -1.1920928955078125e-07,
                0
            ],
            "type" : "VEC3"
        },
        {
            "bufferView" : 1,
            "componentType" : 5126,
            "count" : 12,
            "type" : "VEC3"
        },
        {
            "bufferView" : 2,
            "componentType" : 5126,
            "count" : 12,
            "type" : "VEC2"
        },
        {
            "bufferView" : 3,
            "componentType" : 5123,
            "count" : 24,
            "type" : "SCALAR"
        },
        {
            "bufferView" : 4,
            "componentType" : 5126,
            "count" : 96,
            "max" : [
                2.6862175464630127,
                5.539377212524414,
                19.168258666992188
            ],
            "min" : [
                -0.269925981760025,
                -0.0061681270599365234,
                -0.4457736611366272
            ],
            "type" : "VEC3"
        },
        {
            "bufferView" : 5,
            "componentType" : 5126,
            "count" : 96,
            "type" : "VEC3"
        },
        {
            "bufferView" : 6,
            "componentType" : 5126,
            "count" : 96,
            "type" : "VEC2"
        },
        {
            "bufferView" : 7,
            "componentType" : 5123,
            "count" : 144,
            "type" : "SCALAR"
        },
        {
            "bufferView" : 8,
            "componentType" : 5126,
            "count" : 96,
            "max" : [
                2.59633207321167,
                5.543452262878418,
                18.743959426879883
            ],
            "min" : [
                -2.9453859329223633,
                -0.002093076705932617,
                -0.6994015574455261
            ],
            "type" : "VEC3"
        },
        {
            "bufferView" : 9,
            "componentType" : 5126,
            "count" : 96,
            "type" : "VEC3"
        },
        {
            "bufferView" : 10,
            "componentType" : 5126,
            "count" : 96,
            "type" : "VEC2"
        },
        {
            "bufferView" : 11,
            "componentType" : 5123,
            "count" : 144,
            "type" : "SCALAR"
        },
        {
            "bufferView" : 12,
            "componentType" : 5126,
            "count" : 23066,
            "max" : [
                0.4893433153629303,
                0.31190600991249084,
                0.5383149981498718
            ],
            "min" : [
                -0.4191649854183197,
                -0.205973818898201,
                -0.6836443543434143
            ],
            "type" : "VEC3"
        },
        {
            "bufferView" : 13,
            "componentType" : 5126,
            "count" : 23066,
            "type" : "VEC3"
        },
        {
            "bufferView" : 14,
            "componentType" : 5126,
            "count" : 23066,
            "type" : "VEC2"
        },
        {
            "bufferView" : 15,
            "componentType" : 5123,
            "count" : 110985,
            "type" : "SCALAR"
        },
        {
            "bufferView" : 16,
            "componentType" : 5126,
            "count" : 1416,
            "max" : [
                1.2647775411605835,
                1.5222634077072144,
                0.31180015206336975
            ],
            "min" : [
                -1.254955768585205,
                -1.0375828742980957,
                0.04835314676165581
            ],
            "type" : "VEC3"
        },
        {
            "bufferView" : 17,
            "componentType" : 5126,
            "count" : 1416,
            "type" : "VEC3"
        },
        {
            "bufferView" : 18,
            "componentType" : 5126,
            "count" : 1416,
            "type" : "VEC2"
        },
        {
            "bufferView" : 19,
            "componentType" : 5123,
            "count" : 1416,
            "normalized" : true,
            "type" : "VEC4"
        },
        {
            "bufferView" : 20,
            "componentType" : 5123,
            "count" : 8355,
            "type" : "SCALAR"
        },
        {
            "bufferView" : 21,
            "componentType" : 5126,
            "count" : 8,
            "max" : [
                1.355966329574585,
                3.604860544204712,
                9.665212631225586
            ],
            "min" : [
                -1.3628056049346924,
                0,
                2.2053966522216797
            ],
            "type" : "VEC3"
        },
        {
            "bufferView" : 22,
            "componentType" : 5126,
            "count" : 8,
            "type" : "VEC3"
        },
        {
            "bufferView" : 23,
            "componentType" : 5126,
            "count" : 8,
            "type" : "VEC2"
        },
        {
            "bufferView" : 24,
            "componentType" : 5123,
            "count" : 12,
            "type" : "SCALAR"
        }
    ],
    "bufferViews" : [
        {
            "buffer" : 0,
            "byteLength" : 144,
            "byteOffset" : 0
        },
        {
            "buffer" : 0,
            "byteLength" : 144,
            "byteOffset" : 144
        },
        {
            "buffer" : 0,
            "byteLength" : 96,
            "byteOffset" : 288
        },
        {
            "buffer" : 0,
            "byteLength" : 48,
            "byteOffset" : 384
        },
        {
            "buffer" : 0,
            "byteLength" : 1152,
            "byteOffset" : 432
        },
        {
            "buffer" : 0,
            "byteLength" : 1152,
            "byteOffset" : 1584
        },
        {
            "buffer" : 0,
            "byteLength" : 768,
            "byteOffset" : 2736
        },
        {
            "buffer" : 0,
            "byteLength" : 288,
            "byteOffset" : 3504
        },
        {
            "buffer" : 0,
            "byteLength" : 1152,
            "byteOffset" : 3792
        },
        {
            "buffer" : 0,
            "byteLength" : 1152,
            "byteOffset" : 4944
        },
        {
            "buffer" : 0,
            "byteLength" : 768,
            "byteOffset" : 6096
        },
        {
            "buffer" : 0,
            "byteLength" : 288,
            "byteOffset" : 6864
        },
        {
            "buffer" : 0,
            "byteLength" : 276792,
            "byteOffset" : 7152
        },
        {
            "buffer" : 0,
            "byteLength" : 276792,
            "byteOffset" : 283944
        },
        {
            "buffer" : 0,
            "byteLength" : 184528,
            "byteOffset" : 560736
        },
        {
            "buffer" : 0,
            "byteLength" : 221970,
            "byteOffset" : 745264
        },
        {
            "buffer" : 0,
            "byteLength" : 16992,
            "byteOffset" : 967236
        },
        {
            "buffer" : 0,
            "byteLength" : 16992,
            "byteOffset" : 984228
        },
        {
            "buffer" : 0,
            "byteLength" : 11328,
            "byteOffset" : 1001220
        },
        {
            "buffer" : 0,
            "byteLength" : 11328,
            "byteOffset" : 1012548
        },
        {
            "buffer" : 0,
            "byteLength" : 16710,
            "byteOffset" : 1023876
        },
        {
            "buffer" : 0,
            "byteLength" : 96,
            "byteOffset" : 1040588
        },
        {
            "buffer" : 0,
            "byteLength" : 96,
            "byteOffset" : 1040684
        },
        {
            "buffer" : 0,
            "byteLength" : 64,
            "byteOffset" : 1040780
        },
        {
            "buffer" : 0,
            "byteLength" : 24,
            "byteOffset" : 1040844
        }
    ],
    "buffers" : [
        {
            "byteLength" : 1040868,
            "uri" : "data:application/octet-stream;base64,"
        }
    ]
}
